:SAMPLES-PER-SECOND 30
:FULLY-SPECIFIED
:DEGREES
84
root  -21.0074 37.0017 -4.74373 36.5042 -85.3557 -43.5616
RightUpLeg  -25.1358 -5.05127 3.7962
RightLeg  31.365 2.16654 1.17395
RightFoot  0.0899997 0.397744 -3.93265
RightToes  -1.33073e-015 0 -3.6325e-017
Spine  6.47246 -1.1393 11.4056
Spine1  8.81419 0.0622038 -0.20676
HEad  -2.13384 -0.192549 -5.76304
LeftShoulder1  -0.618497 5.09025 -32.8342
LeftArm  15.7227 -0.761306 -46.3396
LeftForeArm  21.8461 -18.5236 -6.21632
LeftHand  -0.0207467 6.88687 1.39309
RightShoulder  -0.921083 -5.95308 31.0018
RightArm  17.8708 -9.76569 41.5878
RightForeArm  15.5639 11.0872 7.15779
RightHand  -0.160581 4.4988 -2.17179
LeftUpLeg  9.39213 4.2051 4.52956
LeftLeg  50.8132 -4.06194 -4.7722
LeftFoot  0.676341 0.853515 -8.61083
LeftToes  -1.63346e-009 7.54925e-011 9.86887e-012
85
root  -22.4475 36.9392 -4.87274 35.0514 -83.1768 -42.3314
RightUpLeg  -23.997 -6.99241 5.15067
RightLeg  34.7002 1.93151 1.16913
RightFoot  -3.93974 0.250885 -4.26219
RightToes  -1.33073e-015 0 -3.6325e-017
Spine  7.24863 -1.49407 13.3927
Spine1  8.73061 0.106363 0.276511
HEad  -2.44836 -2.20432 -4.98044
LeftShoulder1  -0.538859 4.88706 -32.8175
LeftArm  15.9803 0.493363 -46.1651
LeftForeArm  23.9346 -17.3545 -7.08319
LeftHand  -0.0510765 8.15996 -0.332922
RightShoulder  -0.997953 -6.13485 31.3521
RightArm  18.2036 -8.31816 41.1576
RightForeArm  13.5018 10.816 7.38111
RightHand  -0.175983 5.10789 -2.25005
LeftUpLeg  2.67734 2.41204 5.99634
LeftLeg  60.7477 -1.61785 -2.59788
LeftFoot  14.3873 1.51807 -6.98908
LeftToes  -1.63346e-009 7.54925e-011 9.86887e-012
86
root  -23.944 37.1205 -4.96566 34.4606 -82.4512 -42.5955
RightUpLeg  -20.859 -7.67234 5.57055
RightLeg  35.8024 1.80373 1.1206
RightFoot  -7.15175 0.106803 -4.24766
RightToes  -1.33073e-015 0 -3.6325e-017
Spine  7.09054 -1.08566 14.7043
Spine1  10.4094 0.844937 0.122491
HEad  -2.91865 -3.65358 -4.3528
LeftShoulder1  -0.51119 4.79905 -33.3003
LeftArm  16.0053 0.672177 -45.6668
LeftForeArm  26.4753 -16.2683 -7.88686
LeftHand  -0.0848702 7.85134 -1.84391
RightShoulder  -0.99924 -6.13172 31.443
RightArm  17.6597 -5.8372 41.4858
RightForeArm  13.4757 10.4953 7.42766
RightHand  -0.177196 5.18792 -2.23996
LeftUpLeg  -2.1545 1.86986 6.68593
LeftLeg  67.2059 -0.864264 -1.59775
LeftFoot  13.2418 0.973484 -4.73454
LeftToes  -1.63346e-009 7.54925e-011 9.86887e-012
87
root  -25.4702 37.487 -5.04504 31.3288 -82.6444 -40.1767
RightUpLeg  -16.9565 -7.63388 5.09943
RightLeg  35.3109 1.83176 1.11987
RightFoot  -9.51501 0.00242404 -4.10926
RightToes  -1.33073e-015 0 -3.6325e-017
Spine  7.29606 -0.55055 15.0057
Spine1  10.7482 1.65339 -0.47585
HEad  -2.36084 -5.28308 -3.82998
LeftShoulder1  -0.58918 4.97763 -33.821
LeftArm  16.3852 2.2099 -44.638
LeftForeArm  27.3614 -16.3178 -7.86832
LeftHand  -0.0967132 7.91266 -2.30066
RightShoulder  -0.990934 -6.10892 31.4544
RightArm  17.8914 -3.2211 41.8824
RightForeArm  13.6118 10.9156 7.38862
RightHand  -0.127861 4.50591 -1.77744
LeftUpLeg  -6.68312 1.65312 6.12347
LeftLeg  69.9879 -0.955285 -2.09331
LeftFoot  9.28582 0.191152 -1.43332
LeftToes  -1.63346e-009 7.54925e-011 9.86887e-012
88
root  -26.9172 37.8126 -5.072 31.0424 -83.0942 -39.7273
RightUpLeg  -14.0379 -6.82555 4.84482
RightLeg  34.3951 1.51915 0.844292
RightFoot  -11.4171 -0.0802417 -3.61011
RightToes  -1.33073e-015 0 -3.6325e-017
Spine  7.06184 -0.0254437 16.0227
Spine1  10.6181 2.58225 -2.0754
HEad  -1.18786 -5.75132 -3.95706
LeftShoulder1  -0.61276 5.03984 -33.7297
LeftArm  15.9896 4.68818 -43.9058
LeftForeArm  26.1446 -17.0395 -7.2856
LeftHand  -0.0824852 7.92071 -1.69297
RightShoulder  -0.987992 -6.11591 31.2393
RightArm  19.0728 -0.0725462 42.8917
RightForeArm  10.9141 11.6997 7.4843
RightHand  -0.316366 6.49232 -3.40368
LeftUpLeg  -11.723 1.60505 5.35021
LeftLeg  69.7994 -1.16634 -2.68489
LeftFoot  7.03475 0.196956 -1.46321
LeftToes  -1.63346e-009 7.54925e-011 9.86887e-012
89
root  -28.3838 38.1667 -5.06491 29.0005 -83.7722 -37.8143
RightUpLeg  -10.3226 -6.8529 4.11672
RightLeg  32.6332 1.97042 1.09198
RightFoot  -13.0334 -0.140741 -3.56149
RightToes  -1.33073e-015 0 -3.6325e-017
Spine  6.836 0.497636 16.9541
Spine1  10.4985 3.56566 -3.97962
HEad  -0.33399 -6.94849 -4.1396
LeftShoulder1  -0.594225 5.00356 -33.4649
LeftArm  14.2648 7.02688 -43.0088
LeftForeArm  25.154 -16.9658 -7.19429
LeftHand  -0.0892117 8.32723 -1.5972
RightShoulder  -0.941918 -6.02912 30.7153
RightArm  21.5608 2.35853 44.0469
RightForeArm  6.90171 14.9137 6.67203
RightHand  -0.559026 7.8733 -5.27209
LeftUpLeg  -15.5416 1.62802 4.26402
LeftLeg  66.5978 -1.98482 -4.32942
LeftFoot  3.74663 0.0154254 -0.282037
LeftToes  -1.63346e-009 7.54925e-011 9.86887e-012
90
root  -29.8112 38.4626 -5.04429 27.9242 -84.2884 -36.8366
RightUpLeg  -6.5737 -7.24501 3.49108
RightLeg  30.5312 2.67471 1.44287
RightFoot  -14.4959 -0.194108 -3.49328
RightToes  -1.33073e-015 0 -3.6325e-017
Spine  6.96229 1.00028 17.7686
Spine1  9.88406 4.39572 -5.59278
HEad  0.443262 -7.46821 -4.4979
LeftShoulder1  -0.603739 5.02286 -33.5868
LeftArm  15.0944 9.28279 -41.5781
LeftForeArm  22.8963 -17.9002 -6.60308
LeftHand  -0.130353 9.31064 -2.25745
RightShoulder  -0.923589 -6.01542 30.1787
RightArm  23.5027 4.65961 44.8353
RightForeArm  4.19906 19.8592 5.14101
RightHand  -0.603094 9.11138 -5.20707
LeftUpLeg  -18.7088 1.44777 3.37259
LeftLeg  61.006 -2.7954 -4.90237
LeftFoot  0.756782 -0.0496233 0.403592
LeftToes  -1.63346e-009 7.54925e-011 9.86887e-012
